<svg version="1.1" xmlns="http://www.w3.org/2000/svg" viewBox="0 0 845.4201037153099 533.4445190429688" width="845.4201037153099" height="533.4445190429688">
  <!-- svg-source:excalidraw -->
  
  <defs>
    <style class="style-fonts">
      @font-face {
        font-family: "Virgil";
        src: url("https://excalidraw.com/Virgil.woff2");
      }
      @font-face {
        font-family: "Cascadia";
        src: url("https://excalidraw.com/Cascadia.woff2");
      }
    </style>
  </defs>
  <rect x="0" y="0" width="845.4201037153099" height="533.4445190429688" fill="#ffffff"></rect><g stroke-opacity="0.2" fill-opacity="0.2" stroke-linecap="round" transform="translate(10 277.9349323888538) rotate(0 412.1545098654672 122.75479332705748)"><path d="M0 0 L824.31 0 L824.31 245.51 L0 245.51" stroke="none" stroke-width="0" fill="#40c057"></path><path d="M0 0 C305.74 0, 611.49 0, 824.31 0 M0 0 C165.87 0, 331.75 0, 824.31 0 M824.31 0 C824.31 49.15, 824.31 98.31, 824.31 245.51 M824.31 0 C824.31 96.54, 824.31 193.07, 824.31 245.51 M824.31 245.51 C505.5 245.51, 186.7 245.51, 0 245.51 M824.31 245.51 C603.63 245.51, 382.96 245.51, 0 245.51 M0 245.51 C0 170.33, 0 95.14, 0 0 M0 245.51 C0 195.94, 0 146.38, 0 0" stroke="transparent" stroke-width="1" fill="none"></path></g><g stroke-opacity="0.2" fill-opacity="0.2" stroke-linecap="round" transform="translate(10 10) rotate(0 412.71005185765495 122.75479332705748)"><path d="M0 0 L825.42 0 L825.42 245.51 L0 245.51" stroke="none" stroke-width="0" fill="#7950f2"></path><path d="M0 0 C206.92 0, 413.85 0, 825.42 0 M0 0 C269.45 0, 538.89 0, 825.42 0 M825.42 0 C825.42 58.23, 825.42 116.47, 825.42 245.51 M825.42 0 C825.42 59.39, 825.42 118.77, 825.42 245.51 M825.42 245.51 C609.68 245.51, 393.94 245.51, 0 245.51 M825.42 245.51 C510.01 245.51, 194.61 245.51, 0 245.51 M0 245.51 C0 161.77, 0 78.04, 0 0 M0 245.51 C0 170.12, 0 94.73, 0 0" stroke="transparent" stroke-width="1" fill="none"></path></g><g transform="translate(22.701384232888017 15.388900756835938) rotate(0 49.21875 16.5)"><text x="49.21875" y="0" font-family="Cascadia, Segoe UI Emoji" font-size="28px" fill="#5f3dc4" text-anchor="middle" style="white-space: pre;" direction="ltr" dominant-baseline="text-before-edge">Path 1</text></g><g transform="translate(22.701384232888017 477.83331298828125) rotate(0 49.21875 16.5)"><text x="49.21875" y="0" font-family="Cascadia, Segoe UI Emoji" font-size="28px" fill="#087f5b" text-anchor="middle" style="white-space: pre;" direction="ltr" dominant-baseline="text-before-edge">Path 2</text></g><g stroke-linecap="round" transform="translate(224.19796626413802 115.94444274902344) rotate(0 81.5 38.5)"><path d="M0 0 L163 0 L163 77 L0 77" stroke="none" stroke-width="0" fill="#ced4da"></path><path d="M0 0 C37.21 0, 74.43 0, 163 0 M0 0 C64.19 0, 128.37 0, 163 0 M163 0 C163 16.45, 163 32.9, 163 77 M163 0 C163 29.31, 163 58.62, 163 77 M163 77 C112.95 77, 62.91 77, 0 77 M163 77 C109.52 77, 56.05 77, 0 77 M0 77 C0 60.91, 0 44.83, 0 0 M0 77 C0 57.02, 0 37.05, 0 0" stroke="#000000" stroke-width="1" fill="none"></path></g><g transform="translate(231.86984126413802 137.94444274902344) rotate(0 73.828125 16.5)"><text x="73.828125" y="0" font-family="Cascadia, Segoe UI Emoji" font-size="28px" fill="#000000" text-anchor="middle" style="white-space: pre;" direction="ltr" dominant-baseline="text-before-edge">emulator1</text></g><g stroke-linecap="round" transform="translate(467.69790522898177 117.05555725097656) rotate(0 81.5 38.5)"><path d="M0 0 L163 0 L163 77 L0 77" stroke="none" stroke-width="0" fill="#ced4da"></path><path d="M0 0 C64.88 0, 129.77 0, 163 0 M0 0 C45.99 0, 91.99 0, 163 0 M163 0 C163 24.13, 163 48.26, 163 77 M163 0 C163 15.9, 163 31.8, 163 77 M163 77 C105.88 77, 48.77 77, 0 77 M163 77 C129.94 77, 96.88 77, 0 77 M0 77 C0 48.94, 0 20.88, 0 0 M0 77 C0 46.69, 0 16.38, 0 0" stroke="#000000" stroke-width="1" fill="none"></path></g><g transform="translate(491.77603022898177 139.05555725097656) rotate(0 57.421875 16.5)"><text x="57.421875" y="0" font-family="Cascadia, Segoe UI Emoji" font-size="28px" fill="#000000" text-anchor="middle" style="white-space: pre;" direction="ltr" dominant-baseline="text-before-edge">router1</text></g><g stroke-linecap="round" transform="translate(223.3923937543724 329.05555725097656) rotate(0 81.5 38.5)"><path d="M0 0 L163 0 L163 77 L0 77" stroke="none" stroke-width="0" fill="#ced4da"></path><path d="M0 0 C51.03 0, 102.06 0, 163 0 M0 0 C57.26 0, 114.53 0, 163 0 M163 0 C163 15.96, 163 31.93, 163 77 M163 0 C163 26.7, 163 53.4, 163 77 M163 77 C122.06 77, 81.12 77, 0 77 M163 77 C107.04 77, 51.08 77, 0 77 M0 77 C0 46.36, 0 15.71, 0 0 M0 77 C0 53.73, 0 30.47, 0 0" stroke="#000000" stroke-width="1" fill="none"></path></g><g transform="translate(231.0642687543724 351.05555725097656) rotate(0 73.828125 16.5)"><text x="73.828125" y="0" font-family="Cascadia, Segoe UI Emoji" font-size="28px" fill="#000000" text-anchor="middle" style="white-space: pre;" direction="ltr" dominant-baseline="text-before-edge">emulator2</text></g><g stroke-linecap="round" transform="translate(466.89233271921614 330.1666717529297) rotate(0 81.5 38.5)"><path d="M0 0 L163 0 L163 77 L0 77" stroke="none" stroke-width="0" fill="#ced4da"></path><path d="M0 0 C38.68 0, 77.35 0, 163 0 M0 0 C35.91 0, 71.82 0, 163 0 M163 0 C163 23.43, 163 46.87, 163 77 M163 0 C163 21.45, 163 42.89, 163 77 M163 77 C112.74 77, 62.48 77, 0 77 M163 77 C129.39 77, 95.79 77, 0 77 M0 77 C0 59.01, 0 41.02, 0 0 M0 77 C0 55.91, 0 34.82, 0 0" stroke="#000000" stroke-width="1" fill="none"></path></g><g transform="translate(490.97045771921614 352.1666717529297) rotate(0 57.421875 16.5)"><text x="57.421875" y="0" font-family="Cascadia, Segoe UI Emoji" font-size="28px" fill="#000000" text-anchor="middle" style="white-space: pre;" direction="ltr" dominant-baseline="text-before-edge">router2</text></g><g stroke-linecap="round"><g transform="translate(387.75356929148177 154.38890075683594) rotate(0 39.4444580078125 0)"><path d="M0 0 C17.43 0, 34.87 0, 78.89 0 M0 0 C23.6 0, 47.21 0, 78.89 0" stroke="#000000" stroke-width="2" fill="none"></path></g></g><mask></mask><g stroke-linecap="round"><g transform="translate(630.7534472211693 154.38890075683594) rotate(0 39.4444580078125 0)"><path d="M0 0 C15.98 0, 31.97 0, 78.89 0 M0 0 C22.28 0, 44.55 0, 78.89 0" stroke="#000000" stroke-width="2" fill="none"></path></g></g><mask></mask><g stroke-linecap="round"><g transform="translate(142.97561518991927 154.38890075683594) rotate(0 39.4444580078125 0)"><path d="M0 0 C30.13 0, 60.25 0, 78.89 0 M0 0 C26.47 0, 52.95 0, 78.89 0" stroke="#000000" stroke-width="2" fill="none"></path></g></g><mask></mask><g stroke-linecap="round"><g transform="translate(386.64260737741927 369.5555725097656) rotate(0 39.4444580078125 0)"><path d="M0 0 C30.7 0, 61.39 0, 78.89 0 M0 0 C26.21 0, 52.42 0, 78.89 0" stroke="#000000" stroke-width="2" fill="none"></path></g></g><mask></mask><g stroke-linecap="round"><g transform="translate(629.6424853071068 369.5555725097656) rotate(0 39.4444580078125 0)"><path d="M0 0 C19.68 0, 39.36 0, 78.89 0 M0 0 C22.48 0, 44.96 0, 78.89 0" stroke="#000000" stroke-width="2" fill="none"></path></g></g><mask></mask><g stroke-linecap="round"><g transform="translate(141.86465327585677 369.5555725097656) rotate(0 39.4444580078125 0)"><path d="M0 0 C30.85 0, 61.7 0, 78.89 0 M0 0 C20.05 0, 40.09 0, 78.89 0" stroke="#000000" stroke-width="2" fill="none"></path></g></g><mask></mask><g stroke-linecap="round"><g transform="translate(709.9757372602318 154.4444580078125) rotate(0 0 28.333343505859375)"><path d="M0 0 C0 19.67, 0 39.34, 0 56.67 M0 0 C0 11.34, 0 22.68, 0 56.67" stroke="#000000" stroke-width="2" fill="none"></path></g></g><mask></mask><g stroke-linecap="round"><g transform="translate(709.0866991742943 311.5555419921875) rotate(0 0 28.333343505859375)"><path d="M0 0 C0 16.35, 0 32.7, 0 56.67 M0 0 C0 15.38, 0 30.75, 0 56.67" stroke="#000000" stroke-width="2" fill="none"></path></g></g><mask></mask><g stroke-linecap="round"><g transform="translate(142.42025630320052 155.11114501953125) rotate(0 0 28.333343505859375)"><path d="M0 0 C0 15.69, 0 31.38, 0 56.67 M0 0 C0 12.83, 0 25.66, 0 56.67" stroke="#000000" stroke-width="2" fill="none"></path></g></g><mask></mask><g stroke-linecap="round"><g transform="translate(141.53121821726302 312.22222900390625) rotate(0 0 28.333343505859375)"><path d="M0 0 C0 21.52, 0 43.04, 0 56.67 M0 0 C0 13.07, 0 26.15, 0 56.67" stroke="#000000" stroke-width="2" fill="none"></path></g></g><mask></mask><g stroke-linecap="round" transform="translate(76.64236323679427 210.08338928222656) rotate(0 59 59.5)"><path d="M0 0 L118 0 L118 119 L0 119" stroke="none" stroke-width="0" fill="#ced4da"></path><path d="M0 0 C25.02 0, 50.04 0, 118 0 M0 0 C37.78 0, 75.57 0, 118 0 M118 0 C118 37.53, 118 75.06, 118 119 M118 0 C118 40.84, 118 81.67, 118 119 M118 119 C89.68 119, 61.37 119, 0 119 M118 119 C89.72 119, 61.44 119, 0 119 M0 119 C0 71.98, 0 24.96, 0 0 M0 119 C0 75.47, 0 31.94, 0 0" stroke="#000000" stroke-width="1" fill="none"></path></g><g transform="translate(86.42361323679427 253.08338928222656) rotate(0 49.21875 16.5)"><text x="49.21875" y="0" font-family="Cascadia, Segoe UI Emoji" font-size="28px" fill="#000000" text-anchor="middle" style="white-space: pre;" direction="ltr" dominant-baseline="text-before-edge">client</text></g><g stroke-linecap="round" transform="translate(649.6423632367943 204.5277862548828) rotate(0 59 59.5)"><path d="M0 0 L118 0 L118 119 L0 119" stroke="none" stroke-width="0" fill="#ced4da"></path><path d="M0 0 C32.87 0, 65.73 0, 118 0 M0 0 C34 0, 68 0, 118 0 M118 0 C118 45.59, 118 91.17, 118 119 M118 0 C118 24.34, 118 48.67, 118 119 M118 119 C85.29 119, 52.57 119, 0 119 M118 119 C81.52 119, 45.04 119, 0 119 M0 119 C0 79.3, 0 39.6, 0 0 M0 119 C0 80.7, 0 42.4, 0 0" stroke="#000000" stroke-width="1" fill="none"></path></g><g transform="translate(659.4236132367943 247.5277862548828) rotate(0 49.21875 16.5)"><text x="49.21875" y="0" font-family="Cascadia, Segoe UI Emoji" font-size="28px" fill="#000000" text-anchor="middle" style="white-space: pre;" direction="ltr" dominant-baseline="text-before-edge">server</text></g><g stroke-linecap="round" transform="translate(396.4756762250755 140.62501525878906) rotate(0 29.5 14.5)"><path d="M0 0 L59 0 L59 29 L0 29" stroke="none" stroke-width="0" fill="#7950f2"></path><path d="M0 0 C19.8 0, 39.59 0, 59 0 M0 0 C19.6 0, 39.2 0, 59 0 M59 0 C59 6.58, 59 13.16, 59 29 M59 0 C59 9.93, 59 19.86, 59 29 M59 29 C45.98 29, 32.97 29, 0 29 M59 29 C47.05 29, 35.09 29, 0 29 M0 29 C0 17.9, 0 6.8, 0 0 M0 29 C0 20.89, 0 12.79, 0 0" stroke="transparent" stroke-width="2" fill="none"></path></g><g transform="translate(402.5381762250755 145.62501525878906) rotate(0 23.4375 9.5)"><text x="23.4375" y="0" font-family="Cascadia, Segoe UI Emoji" font-size="16px" fill="#ffff" text-anchor="middle" style="white-space: pre;" direction="ltr" dominant-baseline="text-before-edge">net1b</text></g><g stroke-linecap="round" transform="translate(659.3646532758568 140.62501525878906) rotate(0 29.5 14.5)"><path d="M0 0 L59 0 L59 29 L0 29" stroke="none" stroke-width="0" fill="#7950f2"></path><path d="M0 0 C20.65 0, 41.29 0, 59 0 M0 0 C22.95 0, 45.89 0, 59 0 M59 0 C59 7.33, 59 14.65, 59 29 M59 0 C59 9.81, 59 19.63, 59 29 M59 29 C35.56 29, 12.11 29, 0 29 M59 29 C36.22 29, 13.44 29, 0 29 M0 29 C0 21.09, 0 13.18, 0 0 M0 29 C0 23.07, 0 17.14, 0 0" stroke="transparent" stroke-width="2" fill="none"></path></g><g transform="translate(665.4271532758568 145.62501525878906) rotate(0 23.4375 9.5)"><text x="23.4375" y="0" font-family="Cascadia, Segoe UI Emoji" font-size="16px" fill="#ffff" text-anchor="middle" style="white-space: pre;" direction="ltr" dominant-baseline="text-before-edge">net1c</text></g><g stroke-linecap="round" transform="translate(128.58682124460677 140.62501525878906) rotate(0 29.5 14.5)"><path d="M0 0 L59 0 L59 29 L0 29" stroke="none" stroke-width="0" fill="#7950f2"></path><path d="M0 0 C12.68 0, 25.36 0, 59 0 M0 0 C21.16 0, 42.32 0, 59 0 M59 0 C59 7.15, 59 14.3, 59 29 M59 0 C59 7.31, 59 14.62, 59 29 M59 29 C40.37 29, 21.75 29, 0 29 M59 29 C41.85 29, 24.7 29, 0 29 M0 29 C0 18.13, 0 7.27, 0 0 M0 29 C0 18.85, 0 8.7, 0 0" stroke="transparent" stroke-width="2" fill="none"></path></g><g transform="translate(134.64932124460677 145.62501525878906) rotate(0 23.4375 9.5)"><text x="23.4375" y="0" font-family="Cascadia, Segoe UI Emoji" font-size="16px" fill="#ffff" text-anchor="middle" style="white-space: pre;" direction="ltr" dominant-baseline="text-before-edge">net1a</text></g><g stroke-linecap="round" transform="translate(395.0867602094505 349.7221984863281) rotate(0 29.5 14.5)"><path d="M0 0 L59 0 L59 29 L0 29" stroke="none" stroke-width="0" fill="#12b886"></path><path d="M0 0 C16.08 0, 32.17 0, 59 0 M0 0 C13.14 0, 26.28 0, 59 0 M59 0 C59 11.42, 59 22.84, 59 29 M59 0 C59 11.51, 59 23.02, 59 29 M59 29 C41.16 29, 23.32 29, 0 29 M59 29 C41.5 29, 24.01 29, 0 29 M0 29 C0 17.6, 0 6.19, 0 0 M0 29 C0 20.34, 0 11.69, 0 0" stroke="transparent" stroke-width="2" fill="none"></path></g><g transform="translate(401.1492602094505 354.7221984863281) rotate(0 23.4375 9.5)"><text x="23.4375" y="0" font-family="Cascadia, Segoe UI Emoji" font-size="16px" fill="#ffff" text-anchor="middle" style="white-space: pre;" direction="ltr" dominant-baseline="text-before-edge">net2b</text></g><g stroke-linecap="round" transform="translate(657.9757372602318 349.7221984863281) rotate(0 29.5 14.5)"><path d="M0 0 L59 0 L59 29 L0 29" stroke="none" stroke-width="0" fill="#12b886"></path><path d="M0 0 C18.07 0, 36.13 0, 59 0 M0 0 C17.89 0, 35.78 0, 59 0 M59 0 C59 6.75, 59 13.49, 59 29 M59 0 C59 9.69, 59 19.38, 59 29 M59 29 C41.83 29, 24.65 29, 0 29 M59 29 C38.45 29, 17.89 29, 0 29 M0 29 C0 20.16, 0 11.32, 0 0 M0 29 C0 23.1, 0 17.2, 0 0" stroke="transparent" stroke-width="2" fill="none"></path></g><g transform="translate(664.0382372602318 354.7221984863281) rotate(0 23.4375 9.5)"><text x="23.4375" y="0" font-family="Cascadia, Segoe UI Emoji" font-size="16px" fill="#ffff" text-anchor="middle" style="white-space: pre;" direction="ltr" dominant-baseline="text-before-edge">net2c</text></g><g stroke-linecap="round" transform="translate(127.19790522898177 349.7221984863281) rotate(0 29.5 14.5)"><path d="M0 0 L59 0 L59 29 L0 29" stroke="none" stroke-width="0" fill="#12b886"></path><path d="M0 0 C18.78 0, 37.57 0, 59 0 M0 0 C12.43 0, 24.85 0, 59 0 M59 0 C59 7.66, 59 15.33, 59 29 M59 0 C59 10.25, 59 20.5, 59 29 M59 29 C44.43 29, 29.87 29, 0 29 M59 29 C41 29, 23 29, 0 29 M0 29 C0 22.87, 0 16.74, 0 0 M0 29 C0 22.88, 0 16.77, 0 0" stroke="transparent" stroke-width="2" fill="none"></path></g><g transform="translate(133.26040522898177 354.7221984863281) rotate(0 23.4375 9.5)"><text x="23.4375" y="0" font-family="Cascadia, Segoe UI Emoji" font-size="16px" fill="#ffff" text-anchor="middle" style="white-space: pre;" direction="ltr" dominant-baseline="text-before-edge">net2a</text></g></svg>